<mxfile host="app.diagrams.net" agent="Mozilla/5.0 (Windows NT 10.0; Win64; x64) AppleWebKit/537.36 (KHTML, like Gecko) Chrome/136.0.0.0 Safari/537.36 Edg/136.0.0.0" version="27.0.6">
  <diagram name="Page-1" id="929967ad-93f9-6ef4-fab6-5d389245f69c">
    <mxGraphModel dx="1381" dy="662" grid="1" gridSize="10" guides="1" tooltips="1" connect="1" arrows="1" fold="1" page="1" pageScale="1.5" pageWidth="1169" pageHeight="826" background="none" math="0" shadow="0">
      <root>
        <mxCell id="0" style=";html=1;" />
        <mxCell id="1" style=";html=1;" parent="0" />
        <mxCell id="QtU_t6AT0oeKi_AkxfpL-8" style="edgeStyle=orthogonalEdgeStyle;rounded=0;orthogonalLoop=1;jettySize=auto;html=1;endArrow=none;startFill=0;exitX=0;exitY=0;exitDx=0;exitDy=85;exitPerimeter=0;entryX=0;entryY=0;entryDx=0;entryDy=85;entryPerimeter=0;" parent="1" source="QtU_t6AT0oeKi_AkxfpL-1" target="QtU_t6AT0oeKi_AkxfpL-2" edge="1">
          <mxGeometry relative="1" as="geometry" />
        </mxCell>
        <mxCell id="QtU_t6AT0oeKi_AkxfpL-21" value="Защищенная линия" style="edgeLabel;html=1;align=center;verticalAlign=middle;resizable=0;points=[];" parent="QtU_t6AT0oeKi_AkxfpL-8" vertex="1" connectable="0">
          <mxGeometry x="-0.1547" y="-1" relative="1" as="geometry">
            <mxPoint x="16" y="-21" as="offset" />
          </mxGeometry>
        </mxCell>
        <mxCell id="QtU_t6AT0oeKi_AkxfpL-1" value="Веб-сервер" style="verticalAlign=top;align=left;spacingTop=8;spacingLeft=2;spacingRight=12;shape=cube;size=10;direction=south;fontStyle=4;html=1;whiteSpace=wrap;" parent="1" vertex="1">
          <mxGeometry x="270" y="160" width="180" height="170" as="geometry" />
        </mxCell>
        <mxCell id="QtU_t6AT0oeKi_AkxfpL-2" value="Сервер БД" style="verticalAlign=top;align=left;spacingTop=8;spacingLeft=2;spacingRight=12;shape=cube;size=10;direction=south;fontStyle=4;html=1;whiteSpace=wrap;" parent="1" vertex="1">
          <mxGeometry x="510" y="160" width="180" height="120" as="geometry" />
        </mxCell>
        <mxCell id="QtU_t6AT0oeKi_AkxfpL-9" style="edgeStyle=orthogonalEdgeStyle;rounded=0;orthogonalLoop=1;jettySize=auto;html=1;endArrow=none;startFill=0;" parent="1" source="QtU_t6AT0oeKi_AkxfpL-3" target="QtU_t6AT0oeKi_AkxfpL-1" edge="1">
          <mxGeometry relative="1" as="geometry" />
        </mxCell>
        <mxCell id="QtU_t6AT0oeKi_AkxfpL-3" value="Клиентское устройство" style="verticalAlign=top;align=left;spacingTop=8;spacingLeft=2;spacingRight=12;shape=cube;size=10;direction=south;fontStyle=4;html=1;whiteSpace=wrap;" parent="1" vertex="1">
          <mxGeometry x="270" y="440" width="180" height="120" as="geometry" />
        </mxCell>
        <mxCell id="QtU_t6AT0oeKi_AkxfpL-16" style="rounded=0;orthogonalLoop=1;jettySize=auto;html=1;" parent="1" edge="1" source="QtU_t6AT0oeKi_AkxfpL-4">
          <mxGeometry relative="1" as="geometry">
            <mxPoint x="378.5000000000001" y="260" as="sourcePoint" />
            <mxPoint x="384.2621466608605" y="290.15216441154234" as="targetPoint" />
          </mxGeometry>
        </mxCell>
        <mxCell id="QtU_t6AT0oeKi_AkxfpL-18" style="rounded=0;orthogonalLoop=1;jettySize=auto;html=1;dashed=1;dashPattern=8 8;" parent="1" source="QtU_t6AT0oeKi_AkxfpL-4" target="QtU_t6AT0oeKi_AkxfpL-5" edge="1">
          <mxGeometry relative="1" as="geometry" />
        </mxCell>
        <mxCell id="QtU_t6AT0oeKi_AkxfpL-4" value="Веб-приложение" style="shape=module;align=left;spacingLeft=20;align=center;verticalAlign=top;whiteSpace=wrap;html=1;" parent="1" vertex="1">
          <mxGeometry x="288" y="200" width="130" height="70" as="geometry" />
        </mxCell>
        <mxCell id="QtU_t6AT0oeKi_AkxfpL-5" value="База данных" style="shape=module;align=left;spacingLeft=20;align=center;verticalAlign=top;whiteSpace=wrap;html=1;" parent="1" vertex="1">
          <mxGeometry x="535" y="210" width="130" height="60" as="geometry" />
        </mxCell>
        <mxCell id="QtU_t6AT0oeKi_AkxfpL-17" style="rounded=0;orthogonalLoop=1;jettySize=auto;html=1;dashed=1;dashPattern=8 8;exitX=0.75;exitY=0;exitDx=0;exitDy=0;" parent="1" source="QtU_t6AT0oeKi_AkxfpL-6" target="QtU_t6AT0oeKi_AkxfpL-12" edge="1">
          <mxGeometry relative="1" as="geometry" />
        </mxCell>
        <mxCell id="QtU_t6AT0oeKi_AkxfpL-6" value="Браузер" style="shape=module;align=left;spacingLeft=20;align=center;verticalAlign=top;whiteSpace=wrap;html=1;" parent="1" vertex="1">
          <mxGeometry x="288" y="480" width="130" height="60" as="geometry" />
        </mxCell>
        <mxCell id="QtU_t6AT0oeKi_AkxfpL-12" value="" style="ellipse;whiteSpace=wrap;html=1;aspect=fixed;" parent="1" vertex="1">
          <mxGeometry x="375" y="290" width="20" height="20" as="geometry" />
        </mxCell>
        <mxCell id="QtU_t6AT0oeKi_AkxfpL-14" value="Авторизация" style="text;html=1;align=center;verticalAlign=middle;whiteSpace=wrap;rounded=0;" parent="1" vertex="1">
          <mxGeometry x="295" y="285" width="80" height="30" as="geometry" />
        </mxCell>
        <mxCell id="QtU_t6AT0oeKi_AkxfpL-19" value="Пользователи" style="html=1;whiteSpace=wrap;" parent="1" vertex="1">
          <mxGeometry x="560" y="240" width="94" height="20" as="geometry" />
        </mxCell>
        <mxCell id="QtU_t6AT0oeKi_AkxfpL-22" value="Защищенная линия" style="edgeLabel;html=1;align=center;verticalAlign=middle;resizable=0;points=[];" parent="1" vertex="1" connectable="0">
          <mxGeometry x="300.0023529411766" y="379.9988235294117" as="geometry" />
        </mxCell>
        <mxCell id="Kczdh-5SYy8cf6b3HMA9-1" value="Ввод данных" style="html=1;whiteSpace=wrap;" vertex="1" parent="1">
          <mxGeometry x="316" y="511" width="94" height="20" as="geometry" />
        </mxCell>
        <mxCell id="Kczdh-5SYy8cf6b3HMA9-2" value="Проверка корректности" style="html=1;whiteSpace=wrap;" vertex="1" parent="1">
          <mxGeometry x="314" y="226" width="94" height="35" as="geometry" />
        </mxCell>
      </root>
    </mxGraphModel>
  </diagram>
</mxfile>
